<?xml version="1.0" encoding="UTF-8" standalone="no"?>
<!DOCTYPE svg PUBLIC "-//W3C//DTD SVG 1.1//EN" "http://www.w3.org/Graphics/SVG/1.1/DTD/svg11.dtd">
<svg width="100%" height="100%" viewBox="0 0 128 128" version="1.1" xmlns="http://www.w3.org/2000/svg" xmlns:xlink="http://www.w3.org/1999/xlink" xml:space="preserve" xmlns:serif="http://www.serif.com/" style="fill-rule:evenodd;clip-rule:evenodd;stroke-linejoin:round;stroke-miterlimit:2;">
    <g id="Ebene1">
        <rect x="-1" y="-1" width="129" height="131" style="fill:rgb(0,255,195);"/>
    </g>
    <g transform="matrix(1,0,0,1,-14.6612,-3.8976)">
        <g transform="matrix(117.268,0,0,117.268,33,109)">
            <path d="M0.44,-0.33L0.338,-0.33L0.338,-0.424L0.31,-0.424L0.31,-0.215L0.338,-0.215L0.338,-0.307L0.44,-0.307L0.44,-0.215L0.468,-0.215L0.468,-0.424L0.44,-0.424L0.44,-0.33ZM0.728,-0.592C0.728,-0.66 0.687,-0.7 0.619,-0.7L0.16,-0.7C0.091,-0.7 0.05,-0.66 0.05,-0.591L0.05,-0.107C0.051,-0.042 0.092,-0.001 0.157,-0.001L0.62,-0.001C0.687,-0.001 0.728,-0.041 0.728,-0.108C0.729,-0.269 0.729,-0.431 0.728,-0.592ZM0.156,-0.578C0.156,-0.464 0.156,-0.349 0.155,-0.235C0.155,-0.225 0.15,-0.212 0.143,-0.205C0.121,-0.178 0.096,-0.153 0.072,-0.128C0.071,-0.129 0.069,-0.129 0.067,-0.129L0.067,-0.59C0.067,-0.65 0.1,-0.683 0.161,-0.683C0.293,-0.683 0.424,-0.683 0.556,-0.678C0.542,-0.676 0.528,-0.673 0.514,-0.673C0.426,-0.672 0.338,-0.673 0.251,-0.672C0.191,-0.673 0.156,-0.638 0.156,-0.578ZM0.598,-0.219C0.598,-0.172 0.571,-0.145 0.525,-0.145L0.246,-0.145C0.202,-0.145 0.174,-0.173 0.174,-0.217L0.174,-0.581C0.174,-0.624 0.2,-0.653 0.242,-0.654C0.339,-0.655 0.435,-0.655 0.531,-0.654C0.573,-0.653 0.599,-0.624 0.599,-0.582L0.599,-0.398C0.598,-0.339 0.598,-0.279 0.598,-0.219Z" style="fill:rgb(41,41,41);fill-rule:nonzero;"/>
        </g>
    </g>
</svg>
